<svg width="69" height="68" fill="none" xmlns="http://www.w3.org/2000/svg"><path d="M48.875 5.667h-28.75c-7.94 0-14.375 6.342-14.375 14.166v28.334c0 7.824 6.436 14.166 14.375 14.166h28.75c7.94 0 14.375-6.342 14.375-14.166V19.833c0-7.824-6.436-14.166-14.375-14.166z" stroke="url(#paint0_linear_459_217)" stroke-width="5" stroke-linecap="round" stroke-linejoin="round"/><path d="M46 32.216a11.19 11.19 0 01-1.168 6.882 11.42 11.42 0 01-5.037 4.904 11.65 11.65 0 01-6.998 1.066 11.56 11.56 0 01-6.304-3.176 11.277 11.277 0 01-3.223-6.213 11.188 11.188 0 011.082-6.896 11.416 11.416 0 014.976-4.965 11.648 11.648 0 016.983-1.15c2.44.356 4.7 1.477 6.445 3.196A11.274 11.274 0 0146 32.216z" stroke="url(#paint1_linear_459_217)" stroke-width="5" stroke-linecap="round" stroke-linejoin="round"/><path d="M50.313 18.417h.028" stroke="url(#paint2_linear_459_217)" stroke-width="2" stroke-linecap="round" stroke-linejoin="round"/><defs><linearGradient id="paint0_linear_459_217" x1="71.483" y1="24.016" x2="6.736" y2="30.904" gradientUnits="userSpaceOnUse"><stop stop-color="#EDB9D7"/><stop offset="1" stop-color="#768CFF"/></linearGradient><linearGradient id="paint1_linear_459_217" x1="49.417" y1="29.885" x2="23.518" y2="32.64" gradientUnits="userSpaceOnUse"><stop stop-color="#EDB9D7"/><stop offset="1" stop-color="#768CFF"/></linearGradient><linearGradient id="paint2_linear_459_217" x1="50.345" y1="18.741" x2="50.313" y2="18.741" gradientUnits="userSpaceOnUse"><stop stop-color="#EDB9D7"/><stop offset="1" stop-color="#768CFF"/></linearGradient></defs></svg>