<svg width="68" height="68" fill="none" xmlns="http://www.w3.org/2000/svg"><path fill-rule="evenodd" clip-rule="evenodd" d="M11.333 14.167A2.85 2.85 0 008.5 17v34a2.85 2.85 0 002.833 2.833h45.334A2.85 2.85 0 0059.5 51V17a2.85 2.85 0 00-2.833-2.833H11.333zM2.833 17c0-4.681 3.819-8.5 8.5-8.5h45.334c4.681 0 8.5 3.819 8.5 8.5v34c0 4.681-3.819 8.5-8.5 8.5H11.333c-4.681 0-8.5-3.819-8.5-8.5V17z" fill="url(#paint0_linear_459_215)"/><path fill-rule="evenodd" clip-rule="evenodd" d="M3.345 15.375a2.833 2.833 0 013.946-.696L34 33.375l26.708-18.696a2.833 2.833 0 013.25 4.642L35.625 39.155a2.833 2.833 0 01-3.25 0L4.042 19.32a2.833 2.833 0 01-.697-3.946z" fill="url(#paint1_linear_459_215)"/><defs><linearGradient id="paint0_linear_459_215" x1="74.092" y1="25.014" x2="4.254" y2="33.963" gradientUnits="userSpaceOnUse"><stop stop-color="#EDB9D7"/><stop offset="1" stop-color="#768CFF"/></linearGradient><linearGradient id="paint1_linear_459_215" x1="74.092" y1="22.424" x2="7.482" y2="39.494" gradientUnits="userSpaceOnUse"><stop stop-color="#EDB9D7"/><stop offset="1" stop-color="#768CFF"/></linearGradient></defs></svg>