<svg width="1247" height="586" fill="none" xmlns="http://www.w3.org/2000/svg"><path d="M167.8 5l1.998.083.087-2.083H167.8v2zm0 145v2h2.085l-.087-2.083-1.998.083zm-71.6 0l-1.828.81.527 1.19H96.2v-2zM47.8 40.8l1.829-.81-3.828.876L47.8 40.8zM51.4 150v2h2.067l-.068-2.066L51.4 150zM0 150l-1.998-.082-.086 2.082H0v-2zM0 5V3h-2.084l.086 2.082L0 5zm73.6 0l1.835-.795L74.913 3H73.6v2zm48.6 112.2l-1.835.795 3.834-.856-1.999.061zM118.8 5V3h-2.062l.063 2.06L118.8 5zm47.002-.083c-.935 22.565-1.402 46.726-1.402 72.483h4c0-25.71.466-49.815 1.398-72.317l-3.996-.166zM164.4 77.4c0 25.89.467 50.118 1.402 72.683l3.996-.166c-.932-22.502-1.398-46.674-1.398-72.517h-4zm3.4 70.6H96.2v4h71.6v-4zm-69.772 1.19l-48.4-109.2-3.656 1.62 48.4 109.2 3.656-1.62zM45.801 40.866l3.6 109.2 3.998-.132-3.6-109.2-3.998.132zM51.4 148H0v4h51.4v-4zm-49.402 2.082C3.066 124.192 3.6 99.965 3.6 77.4h-4c0 22.502-.533 46.674-1.598 72.518l3.996.164zM3.6 77.4c0-22.431-.534-46.592-1.602-72.482l-3.996.164C-.933 30.926-.4 55.032-.4 77.4h4zM0 7h73.6V3H0v4zm71.765-1.205l48.6 112.2 3.67-1.59-48.6-112.2-3.67 1.59zm52.434 111.344l-3.4-112.2-3.998.122 3.4 112.2 3.998-.122zM118.8 7h49V3h-49v4zm181.189 37.6l-.101 1.997 2.101.106V44.6h-2zm-35.2-1.4l.035-2-2.035-.035V43.2h2zm0 68.4h-2v2.035l2.035-.035-.035-2zm35.2-1.4h2v-2.104l-2.101.107.101 1.997zm0 39.8v2h2v-2h-2zm-116.2 0h-2v2h2v-2zm0-39.8l.104-1.997-2.104-.11v2.107h2zm35 1.4l-.033 2 2.033.034V111.6h-2zm0-68.4h2v-2.034l-2.033.034.033 2zm-35 1.4h-2v2.107l2.104-.11-.104-1.997zm0-39.8v-2h-2v2h2zm116.2 0h2v-2h-2v2zm.101 37.803c-15.871-.8-27.631-1.269-35.266-1.403l-.07 4c7.565.132 19.271.598 35.134 1.397l.202-3.995zm-37.301.597v68.4h4V43.2h-4zm2.035 70.4c7.768-.134 19.529-.602 35.267-1.403l-.203-3.994c-15.729.799-27.435 1.265-35.133 1.397l.069 4zm33.165-3.4V150h4v-39.8h-4zm2 37.8h-116.2v4h116.2v-4zm-114.2 2v-39.8h-4V150h4zm-2.104-37.803c15.34.801 27.035 1.269 35.071 1.403l.066-4c-7.963-.132-19.602-.598-34.929-1.397l-.208 3.994zm37.104-.597V43.2h-4v68.4h4zm-2.033-70.4c-8.036.134-19.731.602-35.071 1.403l.208 3.994c15.327-.8 26.966-1.265 34.929-1.397l-.066-4zm-32.967 3.4V4.8h-4v39.8h4zm-2-37.8h116.2v-4h-116.2v4zm114.2-2v39.8h4V4.8h-4zm100.427 62.4v-2h-2v2h2zm85.4 0h2v-2h-2v2zm0 82.8v2h2v-2h-2zm-35.2 0l-1.986.236.209 1.764h1.777v-2zm-4.2-35.4l1.986-.236-3.894-.366 1.908.602zm-21.4 28.2l1.025 1.717-1.025-1.717zm-73.6.2l-1 1.732.01.006.99-1.738zm-24.6-25.8l-1.772.928.004.008.005.008 1.763-.944zm12.6-95.8l1.394 1.434-1.394-1.434zm112-12.4l-.788 1.838.007.003.781-1.841zm33.6 26l.91 1.78 2.161-1.104-1.497-1.91L483.016 35zm-35.2 18.4l-.932-1.77-.023.012-.023.013.978 1.745zm-5 2.8l-1.415 1.414 1.071 1.07 1.321-.739-.977-1.745zm-18.2-11.6l-.718 1.867.015.006.016.005.687-1.878zm-50.6 6.2l1.457 1.37.007-.007.006-.008-1.47-1.355zm.6 50.6l-1.4 1.428.007.007.007.007 1.386-1.442zm48.4 7.2l-.579-1.914-.013.003.592 1.911zm14.4-9l1.482 1.343 3.029-3.343h-4.511v2zm-39 0h-2v2h2v-2zm0-30.4h85.4v-4h-85.4v4zm83.4-2V150h4V67.2h-4zm2 80.8h-35.2v4h35.2v-4zm-33.214 1.764l-4.2-35.4-3.972.472 4.2 35.4 3.972-.472zm-8.094-35.766c-3.87 12.255-10.719 21.231-20.518 27.085l2.051 3.434c10.735-6.413 18.152-16.237 22.282-29.315l-3.815-1.204zm-20.518 27.085c-9.891 5.909-22.05 8.917-36.574 8.917v4c15.076 0 27.983-3.125 38.625-9.483l-2.051-3.434zM385.416 150c-13.159 0-24.811-2.928-35.01-8.738l-1.98 3.476c10.867 6.19 23.215 9.262 36.99 9.262v-4zm-35.001-8.732c-10.058-5.803-18.002-14.121-23.836-25.012l-3.526 1.888c6.165 11.509 14.621 20.391 25.363 26.588l1.999-3.464zm-23.828-24.996c-5.691-10.866-8.571-23.604-8.571-38.272h-4c0 15.198 2.986 28.594 9.028 40.128l3.543-1.856zM318.016 78c0-23.442 6.99-41.75 20.794-55.166l-2.788-2.868C321.292 34.283 314.016 53.709 314.016 78h4zm20.794-55.166C352.55 9.48 374.14 2.6 404.016 2.6v-4c-30.392 0-53.201 6.987-67.994 21.366l2.788 2.868zM404.016 2.6c16.984 0 31.841 2.765 44.612 8.238l1.575-3.676C436.841 1.435 421.431-1.4 404.016-1.4v4zm44.619 8.241c12.876 5.463 23.807 13.915 32.807 25.393l3.148-2.468c-9.401-11.988-20.869-20.87-34.393-26.607l-1.562 3.682zm33.47 22.378c-6.012 3.073-17.756 9.212-35.221 18.411l1.864 3.54c17.468-9.201 29.191-15.329 35.178-18.39l-1.821-3.56zm-35.267 18.436l-5 2.8 1.955 3.49 5-2.8-1.955-3.49zm-2.608 3.13c-5.407-5.406-11.722-9.43-18.928-12.063l-1.373 3.756c6.661 2.434 12.479 6.143 17.472 11.136l2.829-2.828zm-18.896-12.052c-7.172-2.758-14.75-4.133-22.718-4.133v4c7.498 0 14.587 1.292 21.282 3.867l1.436-3.734zM402.616 38.6c-13.137 0-23.298 3.495-30.071 10.845l2.941 2.71c5.761-6.25 14.667-9.555 27.13-9.555v-4zm-30.058 10.83c-6.644 7.068-9.942 15.838-9.942 26.17h4c0-9.401 2.968-17.165 8.857-23.43l-2.915-2.74zm-9.942 26.17c0 11.12 3.493 20.264 10.6 27.228l2.799-2.856c-6.226-6.103-9.399-14.16-9.399-24.372h-4zm10.614 27.242c7.316 7.029 18.243 10.358 32.386 10.358v-4c-13.591 0-23.331-3.205-29.615-9.242l-2.771 2.884zm32.386 10.358c6.195 0 12.195-.895 17.991-2.689l-1.183-3.822c-5.404 1.673-11.004 2.511-16.808 2.511v4zm17.978-2.686c6.066-1.834 11.183-5.024 15.304-9.571l-2.964-2.686c-3.613 3.987-8.097 6.796-13.497 8.429l1.157 3.828zM437.416 97.6h-39v4h39v-4zm-37 2V67.2h-4v32.4h4zM667.405 4.8l1.998.083.086-2.083h-2.084v2zm0 145.2v2h2.084l-.086-2.083-1.998.083zm-47 0h-2v2h2v-2zm0-54.4h2v-2h-2v2zm-73.6 0v-2h-2v2h2zm0 54.4v2h2v-2h-2zm-47 0l-1.999-.082-.085 2.082h2.084v-2zm0-145.2v-2h-2.084l.085 2.082 1.999-.082zm47 0h2v-2h-2v2zm0 54.4h-2v2h2v-2zm73.6 0v2h2v-2h-2zm0-54.4v-2h-2v2h2zm45.001-.083c-.934 22.565-1.401 46.793-1.401 72.683h4c0-25.843.466-50.015 1.398-72.517l-3.997-.166zM664.005 77.4c0 25.89.467 50.118 1.401 72.683l3.997-.166c-.932-22.502-1.398-46.674-1.398-72.517h-4zm3.4 70.6h-47v4h47v-4zm-45 2V95.6h-4V150h4zm-2-56.4h-73.6v4h73.6v-4zm-75.6 2V150h4V95.6h-4zm2 52.4h-47v4h47v-4zm-45.002 2.082c1.068-25.89 1.602-50.117 1.602-72.682h-4c0 22.502-.533 46.674-1.599 72.518l3.997.164zm1.602-72.682c0-22.565-.534-46.792-1.602-72.682l-3.997.164c1.066 25.844 1.599 50.016 1.599 72.518h4zm-3.6-70.6h47v-4h-47v4zm45-2v54.4h4V4.8h-4zm2 56.4h73.6v-4h-73.6v4zm75.6-2V4.8h-4v54.4h4zm-2-52.4h47v-4h-47v4zm234.793 40l-.063 1.999 2.063.066V46.8h-2zm-61-1.2l.014-2-2.014-.014V45.6h2zm0 104.4v2h2v-2h-2zm-50 0h-2v2h2v-2zm0-104.4h2v-2.014l-2.013.014.013 2zm-60.8 1.2h-2v2.066l2.065-.067-.065-1.999zm0-42v-2h-2v2h2zm171.8 0h2v-2h-2v2zm.064 40.001a2436.355 2436.355 0 00-61.05-1.201l-.027 4c19.716.133 40.032.533 60.95 1.199l.127-3.998zm-63.064.799V150h4V45.6h-4zm2 102.4h-50v4h50v-4zm-48 2V45.6h-4V150h4zm-2.013-106.4c-19.884.133-40.168.534-60.851 1.201l.129 3.998c20.65-.666 40.9-1.066 60.749-1.199l-.027-4zm-58.787 3.2v-42h-4v42h4zm-2-40h171.8v-4h-171.8v4zm169.8-2v42h4v-42h-4zm-271.251 562l-1.336 1.489 1.336-1.489zm0-111.4l1.394 1.434-1.394-1.434zm151.2 22.6l.651 1.891 2.147-.739-1.004-2.037-1.794.885zm-42.2 18.6l-1.776.92.916 1.768 1.772-.908-.912-1.78zm-18.4-16.6l-.799 1.834.011.004.788-1.838zm-54 4.8l1.457 1.37.007-.007.007-.008-1.471-1.355zm.6 51l-1.428 1.4.014.014.014.014 1.4-1.428zm57.4 4.6l.965 1.752.014-.008.013-.008-.992-1.736zm14.4-17.6l.946-1.762-2.001-1.074-.813 2.12 1.868.716zm42 19.8l1.848.764.754-1.823-1.813-.779-.789 1.838zm-33.4 33.8l-.759-1.85.759 1.85zm-51 7.6c-29.91 0-51.525-6.362-65.265-18.689l-2.671 2.978C595.405 581.562 618.19 588 648.547 588v-4zm-65.265-18.689c-13.746-12.333-20.735-30-20.735-53.311h-4c0 24.155 7.277 43.022 22.064 56.289l2.671-2.978zM562.547 512c0-23.442 6.991-41.75 20.794-55.166l-2.788-2.868c-14.73 14.317-22.006 33.743-22.006 58.034h4zm20.794-55.166c13.74-13.355 35.331-20.234 65.206-20.234v-4c-30.391 0-53.201 6.987-67.994 21.366l2.788 2.868zm65.206-20.234c41.647 0 68.983 14.251 82.806 42.284l3.588-1.769c-14.71-29.832-43.775-44.515-86.394-44.515v4zm83.949 39.509c-12.119 4.174-26.276 10.418-42.461 18.711l1.824 3.56c16.081-8.24 30.058-14.396 41.939-18.489l-1.302-3.782zm-39.773 19.571c-4.099-7.914-10.602-13.753-19.388-17.518l-1.576 3.676c8.014 3.435 13.777 8.663 17.412 15.682l3.552-1.84zm-19.378-17.514c-8.508-3.705-17.246-5.566-26.198-5.566v4c8.381 0 16.576 1.739 24.601 5.234l1.597-3.668zm-26.198-5.566c-13.137 0-23.298 3.495-30.071 10.845l2.942 2.71c5.76-6.25 14.666-9.555 27.129-9.555v-4zm-30.057 10.83c-6.645 7.068-9.943 15.838-9.943 26.17h4c0-9.401 2.968-17.165 8.857-23.43l-2.914-2.74zm-9.943 26.17c0 11.122 3.493 20.38 10.572 27.6l2.856-2.8c-6.255-6.38-9.428-14.588-9.428-24.8h-4zm10.6 27.628c7.315 7.172 18.248 10.572 32.4 10.572v-4c-13.581 0-23.315-3.266-29.6-9.428l-2.8 2.856zm32.4 10.572c11.253 0 20.427-1.825 27.365-5.648l-1.93-3.504c-6.129 3.377-14.555 5.152-25.435 5.152v4zm27.392-5.664c6.989-3.993 12.068-10.252 15.275-18.62l-3.735-1.432c-2.925 7.632-7.447 13.107-13.524 16.58l1.984 3.472zm12.462-17.574c11.003 5.904 25.06 12.529 42.156 19.876l1.579-3.676c-17.036-7.32-30.979-13.895-41.843-19.724l-1.892 3.524zm41.098 17.274c-6.471 15.66-17.224 26.524-32.311 32.714l1.518 3.7c16.113-6.61 27.627-18.279 34.489-34.886l-3.696-1.528zm-32.311 32.714c-15.338 6.292-32.078 9.45-50.241 9.45v4c18.636 0 35.897-3.242 51.759-9.75l-1.518-3.7zm99.231-30.95h-2v2.014l2.014-.014-.014-2zm96-2l1.938.494.664-2.605-2.686.113.084 1.998zm-3.2 19.6l-1.996-.127 1.996.127zm-.6 22.8v2h2v-2h-2zm-141 0l-1.999-.082-.085 2.082h2.084v-2zm0-145.2v-2h-2.084l.085 2.082 1.999-.082zm48.8 0h2v-2h-2v2zm.014 106.8c38.679-.267 70.704-.934 96.07-2.002l-.168-3.996c-25.302 1.065-57.276 1.731-95.93 1.998l.028 4zm94.048-4.494c-1.761 6.906-2.849 13.563-3.258 19.967l3.992.254c.391-6.129 1.436-12.539 3.142-19.233l-3.876-.988zm-3.258 19.967c-.404 6.322-.604 13.967-.604 22.927h4c0-8.907.199-16.462.596-22.673l-3.992-.254zM890.219 582h-141v4h141v-4zm-139.002 2.082c1.068-25.89 1.602-50.118 1.602-72.682h-4c0 22.502-.533 46.674-1.599 72.518l3.997.164zm1.602-72.682c0-22.564-.534-46.792-1.602-72.682l-3.997.164c1.066 25.844 1.599 50.016 1.599 72.518h4zm-3.6-70.6h48.8v-4h-48.8v4zm46.8-2v104.8h4V438.8h-4zm222.381-.2v-2h-2v2h2zm49.6 0h2v-2h-2v2zm0 79.6l2 .027v-.027h-2zm-20.2 48.6l-1.39-1.436-.01.007 1.4 1.429zm-130.8 1l-1.453 1.374.007.008L917 567.8zm-17-48.2l2 .027v-.027h-2zm0-81v-2h-2v2h2zm49.6 0h2v-2h-2v2zm1.2 92.2l-1.956.419.009.042.011.041 1.936-.502zm8.4 10.2l-1.131 1.649.011.008.011.007L959.2 541zm48.2 0l1.03 1.715.01-.009.02-.01-1.06-1.696zm9.4-11l-1.93-.515-.01.03-.01.031 1.95.454zm1.6-89.4h49.6v-4h-49.6v4zm47.6-2v79.6h4v-79.6h-4zm0 79.573c-.26 19.107-6.8 34.788-19.59 47.191l2.78 2.872c13.61-13.197 20.54-29.916 20.81-50.009l-4-.054zm-19.6 47.198c-12.5 12.25-33.91 18.629-64.8 18.629v4c31.25 0 53.97-6.421 67.6-19.771l-2.8-2.858zM981.6 584c-31.351 0-52.151-6.073-63.154-17.582l-2.892 2.764C927.751 581.939 950.018 588 981.6 588v-4zm-63.147-17.574c-11.18-11.823-16.714-27.354-16.453-46.799l-4-.054c-.272 20.289 5.527 36.89 17.547 49.601l2.906-2.748zM902 519.6v-81h-4v81h4zm-2-79h49.6v-4H900v4zm47.6-2v77.8h4v-77.8h-4zm0 77.8c0 5.941.404 10.895 1.244 14.819l3.912-.838c-.76-3.543-1.156-8.189-1.156-13.981h-4zm1.264 14.902c1.104 4.258 4.34 8.012 9.205 11.347l2.262-3.298c-4.469-3.065-6.832-6.111-7.595-9.053l-3.872 1.004zm9.227 11.362c5.303 3.535 13.462 5.136 24.109 5.136v-4c-10.42 0-17.594-1.599-21.891-4.464l-2.218 3.328zM982.2 547.8c11.569 0 20.42-1.599 26.23-5.085l-2.06-3.43c-4.86 2.914-12.806 4.515-24.17 4.515v4zm26.26-5.104c5.55-3.468 9.18-7.51 10.29-12.242l-3.9-.908c-.76 3.268-3.39 6.559-8.51 9.758l2.12 3.392zm10.27-12.181c1.13-4.23 1.67-9.554 1.67-15.915h-4c0 6.172-.53 11.115-1.53 14.885l3.86 1.03zm1.67-15.915v-76h-4v76h4zm180.78-2.8l-.54-1.925.54 3.925v-2zm39.4 52.2l1.67 1.101.01-.008v-.008l-1.68-1.085zm-22.2 14.8l.62 1.902.01-.003.01-.004-.64-1.895zm-134.4 5.2l-1.99-.082-.09 2.082h2.08v-2zm0-145.2v-2h-2.08l.09 2.082 1.99-.082zm47 0h2v-2h-2v2zm0 .2h-2v2h2v-2zm81.6 4.2l-.56 1.918.01.005.02.004.53-1.927zm20.2 11.8l-1.6 1.193.01.013.01.013 1.58-1.219zm-2.6 41.6l-1.49-1.334v.001l1.49 1.333zm-99.2-21.2v-2h-2v2h2zm0 18.6h-2v2h2v-2zm55.6-2.2l-.8-1.831-.02.007-.01.006.83 1.818zm-.2-14.4l-.74 1.857.05.017.04.016.65-1.89zm-1.2 69.2l.3 1.978.03-.004.03-.005-.36-1.969zm8-3.2l1.36 1.474.03-.029.03-.031-1.42-1.414zm-3.4-13.8l-.78 1.838.04.017.04.015.7-1.87zm-58.8-2.4v-2h-2v2h2zm0 20.2h-2v2h2v-2zm70.2-33.6c15.06 0 26 2.405 33.13 6.938 6.98 4.435 10.47 11.019 10.47 20.062h4c0-10.291-4.1-18.206-12.32-23.438-8.07-5.134-19.93-7.562-35.28-7.562v4zm43.6 27c0 8.756-1.99 16.095-5.88 22.115l3.36 2.17c4.38-6.78 6.52-14.908 6.52-24.285h-4zm-5.87 22.099c-3.79 5.749-10.72 10.481-21.17 14.006l1.28 3.79c10.89-3.674 18.76-8.81 23.23-15.594l-3.34-2.202zm-21.14 13.999c-10.38 3.372-24.94 5.102-43.79 5.102v4c19.02 0 34.07-1.737 45.02-5.298l-1.23-3.804zM1173.98 582h-90v4h90v-4zm-88 2.082c1.07-25.89 1.6-50.118 1.6-72.682h-4c0 22.502-.53 46.674-1.59 72.518l3.99.164zm1.6-72.682c0-22.564-.53-46.792-1.6-72.682l-3.99.164c1.06 25.844 1.59 50.016 1.59 72.518h4zm-3.6-70.6h47v-4h-47v4zm45-2v.2h4v-.2h-4zm2 2.2h42.6v-4h-42.6v4zm42.6 0c16.46 0 29.24 1.397 38.44 4.118l1.13-3.836c-9.73-2.879-22.95-4.282-39.57-4.282v4zm38.47 4.127c9.39 2.608 15.64 6.369 19.13 11.066l3.21-2.386c-4.24-5.703-11.46-9.809-21.27-12.534l-1.07 3.854zm19.15 11.092c3.68 4.779 5.58 10.923 5.58 18.581h4c0-8.342-2.09-15.399-6.41-21.019l-3.17 2.438zm5.58 18.581c0 7.611-2.66 14.41-8.09 20.466l2.98 2.669c6.05-6.745 9.11-14.48 9.11-23.135h-4zm-8.09 20.467c-5.22 5.848-14.45 10.78-28.05 14.608l1.09 3.85c13.87-3.906 23.97-9.106 29.95-15.792l-2.99-2.666zm-99.71-19.867V494h4v-18.6h-4zm2 20.6h38.4v-4h-38.4v4zm38.4 0c8.27 0 14.4-.716 18.04-2.382l-1.67-3.636c-2.76 1.267-8.1 2.018-16.37 2.018v4zm18.01-2.369c1.97-.869 3.56-2.146 4.64-3.871 1.07-1.717 1.55-3.738 1.55-5.96h-4c0 1.645-.35 2.89-.94 3.84-.59.941-1.5 1.731-2.86 2.329l1.61 3.662zm6.19-9.831c0-1.936-.55-3.697-1.74-5.161-1.17-1.438-2.83-2.447-4.8-3.129l-1.31 3.78c1.5.518 2.44 1.175 3 1.871.55.669.85 1.509.85 2.639h4zm-6.45-8.257c-3.72-1.488-9.73-2.143-17.75-2.143v4c7.99 0 13.31.678 16.26 1.857l1.49-3.714zm-17.75-2.143h-38.4v4h38.4v-4zm0 76c6.96 0 12.35-.266 16.1-.822l-.59-3.956c-3.45.511-8.6.778-15.51.778v4zm16.16-.831c3.86-.69 6.98-1.844 9-3.695l-2.71-2.948c-1.18 1.082-3.39 2.061-7 2.705l.71 3.938zm9.06-3.755c2.04-2.041 2.98-4.719 2.98-7.814h-4c0 2.238-.65 3.827-1.81 4.986l2.83 2.828zm2.98-7.814c0-2.13-.6-4.061-1.87-5.684-1.25-1.598-3.05-2.764-5.22-3.586l-1.41 3.74c1.69.644 2.8 1.445 3.48 2.314.66.843 1.02 1.88 1.02 3.216h4zm-7.01-9.238c-4.15-1.779-11.33-2.562-21.19-2.562v4c9.88 0 16.3.817 19.62 2.238l1.57-3.676zm-21.19-2.562h-38.4v4h38.4v-4zm-40.4 2v20.2h4v-20.2h-4zm2 22.2h38.4v-4h-38.4v4z" fill="url(#paint0_linear_456_483)"/><defs><linearGradient id="paint0_linear_456_483" x1="1435.84" y1="154.2" x2="45.377" y2="412.065" gradientUnits="userSpaceOnUse"><stop offset=".188" stop-color="#EDB9D7"/><stop offset="1" stop-color="#1737D9"/></linearGradient></defs></svg>