<svg width="68" height="68" fill="none" xmlns="http://www.w3.org/2000/svg"><path d="M42.642 14.167a14.167 14.167 0 0111.191 11.191M42.642 2.833A25.5 25.5 0 0165.167 25.33m-2.834 22.61v8.5a5.667 5.667 0 01-6.176 5.667 56.072 56.072 0 01-24.452-8.699 55.251 55.251 0 01-17-17 56.072 56.072 0 01-8.698-24.565 5.667 5.667 0 015.638-6.176h8.5a5.667 5.667 0 015.667 4.873 36.378 36.378 0 001.983 7.962 5.666 5.666 0 01-1.275 5.978l-3.598 3.598a45.335 45.335 0 0017 17l3.598-3.598a5.666 5.666 0 015.978-1.275 36.29 36.29 0 007.962 1.983 5.666 5.666 0 014.873 5.752z" stroke="url(#paint0_linear_459_216)" stroke-width="5" stroke-linecap="round" stroke-linejoin="round"/><defs><linearGradient id="paint0_linear_459_216" x1="73.641" y1="22.034" x2="6.974" y2="29.01" gradientUnits="userSpaceOnUse"><stop stop-color="#EDB9D7"/><stop offset="1" stop-color="#768CFF"/></linearGradient></defs></svg>