<svg width="53" height="46" viewBox="0 0 53 46" fill="none" xmlns="http://www.w3.org/2000/svg">
<path d="M47.4953 4.94845C46.2822 3.73483 44.842 2.77211 43.2567 2.11527C41.6715 1.45844 39.9724 1.12036 38.2565 1.12036C36.5406 1.12036 34.8415 1.45844 33.2563 2.11527C31.6711 2.77211 30.2308 3.73483 29.0178 4.94845L26.5003 7.46595L23.9828 4.94845C21.5325 2.49818 18.2092 1.12163 14.744 1.12163C11.2788 1.12163 7.95555 2.49818 5.50528 4.94845C3.05501 7.39872 1.67847 10.722 1.67847 14.1872C1.67847 17.6524 3.05501 20.9757 5.50528 23.4259L8.02278 25.9434L26.5003 44.4209L44.9778 25.9434L47.4953 23.4259C48.7089 22.2129 49.6716 20.7726 50.3285 19.1874C50.9853 17.6022 51.3234 15.9031 51.3234 14.1872C51.3234 12.4713 50.9853 10.7722 50.3285 9.18698C49.6716 7.60176 48.7089 6.16149 47.4953 4.94845V4.94845Z" stroke="#D9D9D9" stroke-width="2" stroke-linecap="round" stroke-linejoin="round"/>
</svg>
