<svg width="1247" height="586" viewBox="0 0 1247 586" fill="none" xmlns="http://www.w3.org/2000/svg">
<path d="M167.8 4.99999L169.798 5.08276L169.885 2.99999H167.8V4.99999ZM167.8 150V152H169.885L169.798 149.917L167.8 150ZM96.2 150L94.3716 150.81L94.8988 152H96.2V150ZM47.8 40.8L49.6285 39.9896L45.8011 40.8659L47.8 40.8ZM51.4 150V152H53.467L53.3989 149.934L51.4 150ZM9.53674e-07 150L-1.9983 149.918L-2.08417 152H9.53674e-07V150ZM9.53674e-07 4.99999V2.99999H-2.08417L-1.9983 5.0824L9.53674e-07 4.99999ZM73.6 4.99999L75.4352 4.20506L74.9133 2.99999H73.6V4.99999ZM122.2 117.2L120.365 117.995L124.199 117.139L122.2 117.2ZM118.8 4.99999V2.99999H116.738L116.801 5.06057L118.8 4.99999ZM165.802 4.91723C164.867 27.4816 164.4 51.6428 164.4 77.4H168.4C168.4 51.6905 168.866 27.585 169.798 5.08276L165.802 4.91723ZM164.4 77.4C164.4 103.29 164.867 127.518 165.802 150.083L169.798 149.917C168.866 127.415 168.4 103.243 168.4 77.4H164.4ZM167.8 148H96.2V152H167.8V148ZM98.0285 149.19L49.6285 39.9896L45.9716 41.6104L94.3716 150.81L98.0285 149.19ZM45.8011 40.8659L49.4011 150.066L53.3989 149.934L49.7989 40.7341L45.8011 40.8659ZM51.4 148H9.53674e-07V152H51.4V148ZM1.9983 150.082C3.06594 124.192 3.6 99.9645 3.6 77.4H-0.4C-0.4 99.9022 -0.932604 124.074 -1.9983 149.918L1.9983 150.082ZM3.6 77.4C3.6 54.9687 3.06593 30.8076 1.9983 4.91759L-1.9983 5.0824C-0.932597 30.9257 -0.4 55.0313 -0.4 77.4H3.6ZM9.53674e-07 6.99999H73.6V2.99999H9.53674e-07V6.99999ZM71.7648 5.79494L120.365 117.995L124.035 116.405L75.4352 4.20506L71.7648 5.79494ZM124.199 117.139L120.799 4.93941L116.801 5.06057L120.201 117.261L124.199 117.139ZM118.8 6.99999H167.8V2.99999H118.8V6.99999ZM299.989 44.6L299.888 46.5975L301.989 46.7034V44.6H299.989ZM264.789 43.2L264.824 41.2003L262.789 41.1646V43.2H264.789ZM264.789 111.6H262.789V113.635L264.824 113.6L264.789 111.6ZM299.989 110.2H301.989V108.096L299.888 108.203L299.989 110.2ZM299.989 150V152H301.989V150H299.989ZM183.789 150H181.789V152H183.789V150ZM183.789 110.2L183.893 108.203L181.789 108.093V110.2H183.789ZM218.789 111.6L218.756 113.6L220.789 113.634V111.6H218.789ZM218.789 43.2H220.789V41.1664L218.756 41.2003L218.789 43.2ZM183.789 44.6H181.789V46.7071L183.893 46.5973L183.789 44.6ZM183.789 4.8V2.8H181.789V4.8H183.789ZM299.989 4.8H301.989V2.8H299.989V4.8ZM300.09 42.6025C284.219 41.8023 272.459 41.3342 264.824 41.2003L264.754 45.1997C272.319 45.3324 284.025 45.7976 299.888 46.5975L300.09 42.6025ZM262.789 43.2V111.6H266.789V43.2H262.789ZM264.824 113.6C272.592 113.466 284.353 112.998 300.091 112.197L299.888 108.203C284.159 109.002 272.453 109.468 264.755 109.6L264.824 113.6ZM297.989 110.2V150H301.989V110.2H297.989ZM299.989 148H183.789V152H299.989V148ZM185.789 150V110.2H181.789V150H185.789ZM183.685 112.197C199.025 112.998 210.72 113.466 218.756 113.6L218.822 109.6C210.859 109.468 199.22 109.002 183.893 108.203L183.685 112.197ZM220.789 111.6V43.2H216.789V111.6H220.789ZM218.756 41.2003C210.72 41.3342 199.025 41.8024 183.685 42.6027L183.893 46.5973C199.22 45.7976 210.859 45.3324 218.822 45.1997L218.756 41.2003ZM185.789 44.6V4.8H181.789V44.6H185.789ZM183.789 6.8H299.989V2.8H183.789V6.8ZM297.989 4.8V44.6H301.989V4.8H297.989ZM398.416 67.2V65.2H396.416V67.2H398.416ZM483.816 67.2H485.816V65.2H483.816V67.2ZM483.816 150V152H485.816V150H483.816ZM448.616 150L446.63 150.236L446.839 152H448.616V150ZM444.416 114.6L446.402 114.364L442.508 113.998L444.416 114.6ZM423.016 142.8L424.041 144.517L423.016 142.8ZM349.416 143L348.416 144.732L348.426 144.738L349.416 143ZM324.816 117.2L323.044 118.128L323.048 118.136L323.053 118.144L324.816 117.2ZM337.416 21.4L338.81 22.8342L337.416 21.4ZM449.416 8.99999L448.628 10.8383L448.635 10.8412L449.416 8.99999ZM483.016 35L483.926 36.7809L486.087 35.6761L484.59 33.7659L483.016 35ZM447.816 53.4L446.884 51.6304L446.861 51.6424L446.838 51.655L447.816 53.4ZM442.816 56.2L441.401 57.6142L442.472 58.6847L443.793 57.945L442.816 56.2ZM424.616 44.6L423.898 46.4667L423.913 46.4727L423.929 46.4785L424.616 44.6ZM374.016 50.8L375.473 52.1698L375.48 52.1626L375.486 52.1553L374.016 50.8ZM374.616 101.4L373.216 102.828L373.223 102.835L373.23 102.842L374.616 101.4ZM423.016 108.6L422.437 106.686L422.424 106.689L423.016 108.6ZM437.416 99.6L438.898 100.943L441.927 97.6H437.416V99.6ZM398.416 99.6H396.416V101.6H398.416V99.6ZM398.416 69.2H483.816V65.2H398.416V69.2ZM481.816 67.2V150H485.816V67.2H481.816ZM483.816 148H448.616V152H483.816V148ZM450.602 149.764L446.402 114.364L442.43 114.836L446.63 150.236L450.602 149.764ZM442.508 113.998C438.638 126.253 431.789 135.229 421.99 141.083L424.041 144.517C434.776 138.104 442.193 128.28 446.323 115.202L442.508 113.998ZM421.99 141.083C412.099 146.992 399.94 150 385.416 150V154C400.492 154 413.399 150.875 424.041 144.517L421.99 141.083ZM385.416 150C372.257 150 360.605 147.072 350.406 141.262L348.426 144.738C359.293 150.928 371.641 154 385.416 154V150ZM350.415 141.268C340.357 135.465 332.413 127.147 326.579 116.256L323.053 118.144C329.218 129.653 337.674 138.535 348.416 144.732L350.415 141.268ZM326.587 116.272C320.896 105.406 318.016 92.6685 318.016 78H314.016C314.016 93.1982 317.002 106.594 323.044 118.128L326.587 116.272ZM318.016 78C318.016 54.5576 325.006 36.2505 338.81 22.8342L336.022 19.9658C321.292 34.2829 314.016 53.709 314.016 78H318.016ZM338.81 22.8342C352.55 9.47943 374.14 2.59999 404.016 2.59999V-1.40001C373.624 -1.40001 350.815 5.58722 336.022 19.9658L338.81 22.8342ZM404.016 2.59999C421 2.59999 435.857 5.36488 448.628 10.8383L450.203 7.16171C436.841 1.4351 421.431 -1.40001 404.016 -1.40001V2.59999ZM448.635 10.8412C461.511 16.3037 472.442 24.7558 481.442 36.2341L484.59 33.7659C475.189 21.7775 463.721 12.8963 450.197 7.15883L448.635 10.8412ZM482.105 33.2191C476.093 36.2923 464.349 42.4313 446.884 51.6304L448.748 55.1695C466.216 45.9687 477.939 39.841 483.926 36.7809L482.105 33.2191ZM446.838 51.655L441.838 54.455L443.793 57.945L448.793 55.145L446.838 51.655ZM444.23 54.7858C438.823 49.3791 432.508 45.3543 425.302 42.7215L423.929 46.4785C430.59 48.9123 436.408 52.6209 441.401 57.6142L444.23 54.7858ZM425.334 42.7333C418.162 39.9749 410.584 38.6 402.616 38.6V42.6C410.114 42.6 417.203 43.8917 423.898 46.4667L425.334 42.7333ZM402.616 38.6C389.479 38.6 379.318 42.095 372.545 49.4446L375.486 52.1553C381.247 45.905 390.153 42.6 402.616 42.6V38.6ZM372.558 49.4302C365.914 56.4984 362.616 65.2679 362.616 75.6H366.616C366.616 66.1987 369.584 58.435 375.473 52.1698L372.558 49.4302ZM362.616 75.6C362.616 86.7205 366.109 95.8642 373.216 102.828L376.015 99.9716C369.789 93.8692 366.616 85.8129 366.616 75.6H362.616ZM373.23 102.842C380.546 109.871 391.473 113.2 405.616 113.2V109.2C392.025 109.2 382.285 105.995 376.001 99.9578L373.23 102.842ZM405.616 113.2C411.811 113.2 417.811 112.305 423.607 110.511L422.424 106.689C417.02 108.362 411.42 109.2 405.616 109.2V113.2ZM423.594 110.514C429.66 108.68 434.777 105.49 438.898 100.943L435.934 98.257C432.321 102.244 427.837 105.053 422.437 106.686L423.594 110.514ZM437.416 97.6H398.416V101.6H437.416V97.6ZM400.416 99.6V67.2H396.416V99.6H400.416ZM667.405 4.8L669.403 4.88277L669.489 2.8H667.405V4.8ZM667.405 150V152H669.489L669.403 149.917L667.405 150ZM620.405 150H618.405V152H620.405V150ZM620.405 95.6H622.405V93.6H620.405V95.6ZM546.805 95.6V93.6H544.805V95.6H546.805ZM546.805 150V152H548.805V150H546.805ZM499.805 150L497.806 149.918L497.721 152H499.805V150ZM499.805 4.8V2.8H497.721L497.806 4.8824L499.805 4.8ZM546.805 4.8H548.805V2.8H546.805V4.8ZM546.805 59.2H544.805V61.2H546.805V59.2ZM620.405 59.2V61.2H622.405V59.2H620.405ZM620.405 4.8V2.8H618.405V4.8H620.405ZM665.406 4.71723C664.472 27.2818 664.005 51.5096 664.005 77.4H668.005C668.005 51.557 668.471 27.3849 669.403 4.88277L665.406 4.71723ZM664.005 77.4C664.005 103.29 664.472 127.518 665.406 150.083L669.403 149.917C668.471 127.415 668.005 103.243 668.005 77.4H664.005ZM667.405 148H620.405V152H667.405V148ZM622.405 150V95.6H618.405V150H622.405ZM620.405 93.6H546.805V97.6H620.405V93.6ZM544.805 95.6V150H548.805V95.6H544.805ZM546.805 148H499.805V152H546.805V148ZM501.803 150.082C502.871 124.192 503.405 99.9645 503.405 77.4H499.405C499.405 99.9022 498.872 124.074 497.806 149.918L501.803 150.082ZM503.405 77.4C503.405 54.8355 502.871 30.6078 501.803 4.71759L497.806 4.8824C498.872 30.7256 499.405 54.8978 499.405 77.4H503.405ZM499.805 6.8H546.805V2.8H499.805V6.8ZM544.805 4.8V59.2H548.805V4.8H544.805ZM546.805 61.2H620.405V57.2H546.805V61.2ZM622.405 59.2V4.8H618.405V59.2H622.405ZM620.405 6.8H667.405V2.8H620.405V6.8ZM855.198 46.8L855.135 48.799L857.198 48.8647V46.8H855.198ZM794.198 45.6L794.212 43.6L792.198 43.5864V45.6H794.198ZM794.198 150V152H796.198V150H794.198ZM744.198 150H742.198V152H744.198V150ZM744.198 45.6H746.198V43.5865L744.185 43.6L744.198 45.6ZM683.398 46.8H681.398V48.8655L683.463 48.799L683.398 46.8ZM683.398 4.8V2.8H681.398V4.8H683.398ZM855.198 4.8H857.198V2.8H855.198V4.8ZM855.262 44.801C834.313 44.1338 813.963 43.7335 794.212 43.6L794.185 47.6C813.901 47.7332 834.217 48.1328 855.135 48.799L855.262 44.801ZM792.198 45.6V150H796.198V45.6H792.198ZM794.198 148H744.198V152H794.198V148ZM746.198 150V45.6H742.198V150H746.198ZM744.185 43.6C724.301 43.7335 704.017 44.1338 683.334 44.801L683.463 48.799C704.113 48.1328 724.363 47.7332 744.212 47.6L744.185 43.6ZM685.398 46.8V4.8H681.398V46.8H685.398ZM683.398 6.8H855.198V2.8H683.398V6.8ZM853.198 4.8V46.8H857.198V4.8H853.198ZM581.947 566.8L580.611 568.289L581.947 566.8ZM581.947 455.4L583.341 456.834L581.947 455.4ZM733.147 478L733.798 479.891L735.945 479.152L734.941 477.115L733.147 478ZM690.947 496.6L689.171 497.52L690.087 499.288L691.859 498.38L690.947 496.6ZM672.547 480L671.748 481.834L671.759 481.838L672.547 480ZM618.547 484.8L620.004 486.17L620.011 486.163L620.018 486.155L618.547 484.8ZM619.147 535.8L617.719 537.2L617.733 537.214L617.747 537.228L619.147 535.8ZM676.547 540.4L677.512 542.152L677.526 542.144L677.539 542.136L676.547 540.4ZM690.947 522.8L691.893 521.038L689.892 519.964L689.079 522.084L690.947 522.8ZM732.947 542.6L734.795 543.364L735.549 541.541L733.736 540.762L732.947 542.6ZM699.547 576.4L698.788 574.55L699.547 576.4ZM648.547 584C618.637 584 597.022 577.638 583.282 565.311L580.611 568.289C595.405 581.562 618.19 588 648.547 588V584ZM583.282 565.311C569.536 552.978 562.547 535.311 562.547 512H558.547C558.547 536.155 565.824 555.022 580.611 568.289L583.282 565.311ZM562.547 512C562.547 488.558 569.538 470.25 583.341 456.834L580.553 453.966C565.823 468.283 558.547 487.709 558.547 512H562.547ZM583.341 456.834C597.081 443.479 618.672 436.6 648.547 436.6V432.6C618.156 432.6 595.346 439.587 580.553 453.966L583.341 456.834ZM648.547 436.6C690.194 436.6 717.53 450.851 731.353 478.884L734.941 477.115C720.231 447.283 691.166 432.6 648.547 432.6V436.6ZM732.496 476.109C720.377 480.283 706.22 486.527 690.035 494.82L691.859 498.38C707.94 490.14 721.917 483.984 733.798 479.891L732.496 476.109ZM692.723 495.68C688.624 487.766 682.121 481.927 673.335 478.162L671.759 481.838C679.773 485.273 685.536 490.501 689.171 497.52L692.723 495.68ZM673.345 478.166C664.837 474.461 656.099 472.6 647.147 472.6V476.6C655.528 476.6 663.723 478.339 671.748 481.834L673.345 478.166ZM647.147 472.6C634.01 472.6 623.849 476.095 617.076 483.445L620.018 486.155C625.778 479.905 634.684 476.6 647.147 476.6V472.6ZM617.09 483.43C610.445 490.498 607.147 499.268 607.147 509.6H611.147C611.147 500.199 614.115 492.435 620.004 486.17L617.09 483.43ZM607.147 509.6C607.147 520.722 610.64 529.98 617.719 537.2L620.575 534.4C614.32 528.02 611.147 519.812 611.147 509.6H607.147ZM617.747 537.228C625.062 544.4 635.995 547.8 650.147 547.8V543.8C636.566 543.8 626.832 540.534 620.547 534.372L617.747 537.228ZM650.147 547.8C661.4 547.8 670.574 545.975 677.512 542.152L675.582 538.648C669.453 542.025 661.027 543.8 650.147 543.8V547.8ZM677.539 542.136C684.528 538.143 689.607 531.884 692.814 523.516L689.079 522.084C686.154 529.716 681.632 535.191 675.555 538.664L677.539 542.136ZM690.001 524.562C701.004 530.466 715.061 537.091 732.157 544.438L733.736 540.762C716.7 533.442 702.757 526.867 691.893 521.038L690.001 524.562ZM731.099 541.836C724.628 557.496 713.875 568.36 698.788 574.55L700.306 578.25C716.419 571.64 727.933 559.971 734.795 543.364L731.099 541.836ZM698.788 574.55C683.45 580.842 666.71 584 648.547 584V588C667.183 588 684.444 584.758 700.306 578.25L698.788 574.55ZM798.019 543.6H796.019V545.614L798.033 545.6L798.019 543.6ZM894.019 541.6L895.957 542.094L896.621 539.489L893.935 539.602L894.019 541.6ZM890.819 561.2L888.823 561.073L890.819 561.2ZM890.219 584V586H892.219V584H890.219ZM749.219 584L747.22 583.918L747.135 586H749.219V584ZM749.219 438.8V436.8H747.135L747.22 438.882L749.219 438.8ZM798.019 438.8H800.019V436.8H798.019V438.8ZM798.033 545.6C836.712 545.333 868.737 544.666 894.103 543.598L893.935 539.602C868.633 540.667 836.659 541.333 798.005 541.6L798.033 545.6ZM892.081 541.106C890.32 548.012 889.232 554.669 888.823 561.073L892.815 561.327C893.206 555.198 894.251 548.788 895.957 542.094L892.081 541.106ZM888.823 561.073C888.419 567.395 888.219 575.04 888.219 584H892.219C892.219 575.093 892.418 567.538 892.815 561.327L888.823 561.073ZM890.219 582H749.219V586H890.219V582ZM751.217 584.082C752.285 558.192 752.819 533.964 752.819 511.4H748.819C748.819 533.902 748.286 558.074 747.22 583.918L751.217 584.082ZM752.819 511.4C752.819 488.836 752.285 464.608 751.217 438.718L747.22 438.882C748.286 464.726 748.819 488.898 748.819 511.4H752.819ZM749.219 440.8H798.019V436.8H749.219V440.8ZM796.019 438.8V543.6H800.019V438.8H796.019ZM1018.4 438.6V436.6H1016.4V438.6H1018.4ZM1068 438.6H1070V436.6H1068V438.6ZM1068 518.2L1070 518.227L1070 518.214V518.2H1068ZM1047.8 566.8L1046.41 565.364L1046.4 565.371L1047.8 566.8ZM917 567.8L915.547 569.174L915.554 569.182L917 567.8ZM900 519.6L902 519.627L902 519.613V519.6H900ZM900 438.6V436.6H898V438.6H900ZM949.6 438.6H951.6V436.6H949.6V438.6ZM950.8 530.8L948.844 531.219L948.853 531.261L948.864 531.302L950.8 530.8ZM959.2 541L958.069 542.649L958.08 542.657L958.091 542.664L959.2 541ZM1007.4 541L1008.43 542.715L1008.44 542.706L1008.46 542.696L1007.4 541ZM1016.8 530L1014.87 529.485L1014.86 529.515L1014.85 529.546L1016.8 530ZM1018.4 440.6H1068V436.6H1018.4V440.6ZM1066 438.6V518.2H1070V438.6H1066ZM1066 518.173C1065.74 537.28 1059.2 552.961 1046.41 565.364L1049.19 568.236C1062.8 555.039 1069.73 538.32 1070 518.227L1066 518.173ZM1046.4 565.371C1033.9 577.621 1012.49 584 981.6 584V588C1012.85 588 1035.57 581.579 1049.2 568.229L1046.4 565.371ZM981.6 584C950.249 584 929.449 577.927 918.446 566.418L915.554 569.182C927.751 581.939 950.018 588 981.6 588V584ZM918.453 566.426C907.273 554.603 901.739 539.072 902 519.627L898 519.573C897.728 539.862 903.527 556.463 915.547 569.174L918.453 566.426ZM902 519.6V438.6H898V519.6H902ZM900 440.6H949.6V436.6H900V440.6ZM947.6 438.6V516.4H951.6V438.6H947.6ZM947.6 516.4C947.6 522.341 948.004 527.295 948.844 531.219L952.756 530.381C951.996 526.838 951.6 522.192 951.6 516.4H947.6ZM948.864 531.302C949.968 535.56 953.204 539.314 958.069 542.649L960.331 539.351C955.862 536.286 953.499 533.24 952.736 530.298L948.864 531.302ZM958.091 542.664C963.394 546.199 971.553 547.8 982.2 547.8V543.8C971.78 543.8 964.606 542.201 960.309 539.336L958.091 542.664ZM982.2 547.8C993.769 547.8 1002.62 546.201 1008.43 542.715L1006.37 539.285C1001.51 542.199 993.564 543.8 982.2 543.8V547.8ZM1008.46 542.696C1014.01 539.228 1017.64 535.186 1018.75 530.454L1014.85 529.546C1014.09 532.814 1011.46 536.105 1006.34 539.304L1008.46 542.696ZM1018.73 530.515C1019.86 526.285 1020.4 520.961 1020.4 514.6H1016.4C1016.4 520.772 1015.87 525.715 1014.87 529.485L1018.73 530.515ZM1020.4 514.6V438.6H1016.4V514.6H1020.4ZM1201.18 511.8L1200.64 509.875L1201.18 513.8V511.8ZM1240.58 564L1242.25 565.101L1242.26 565.093L1242.26 565.085L1240.58 564ZM1218.38 578.8L1219 580.702L1219.01 580.699L1219.02 580.695L1218.38 578.8ZM1083.98 584L1081.99 583.918L1081.9 586H1083.98V584ZM1083.98 438.8V436.8H1081.9L1081.99 438.882L1083.98 438.8ZM1130.98 438.8H1132.98V436.8H1130.98V438.8ZM1130.98 439H1128.98V441H1130.98V439ZM1212.58 443.2L1212.02 445.118L1212.03 445.123L1212.05 445.127L1212.58 443.2ZM1232.78 455L1231.18 456.193L1231.19 456.206L1231.2 456.219L1232.78 455ZM1230.18 496.6L1228.69 495.266L1228.69 495.267L1230.18 496.6ZM1130.98 475.4V473.4H1128.98V475.4H1130.98ZM1130.98 494H1128.98V496H1130.98V494ZM1186.58 491.8L1185.78 489.969L1185.76 489.976L1185.75 489.982L1186.58 491.8ZM1186.38 477.4L1185.64 479.257L1185.69 479.274L1185.73 479.29L1186.38 477.4ZM1185.18 546.6L1185.48 548.578L1185.51 548.574L1185.54 548.569L1185.18 546.6ZM1193.18 543.4L1194.54 544.874L1194.57 544.845L1194.6 544.814L1193.18 543.4ZM1189.78 529.6L1189 531.438L1189.04 531.455L1189.08 531.47L1189.78 529.6ZM1130.98 527.2V525.2H1128.98V527.2H1130.98ZM1130.98 547.4H1128.98V549.4H1130.98V547.4ZM1201.18 513.8C1216.24 513.8 1227.18 516.205 1234.31 520.738C1241.29 525.173 1244.78 531.757 1244.78 540.8H1248.78C1248.78 530.509 1244.68 522.594 1236.46 517.362C1228.39 512.228 1216.53 509.8 1201.18 509.8V513.8ZM1244.78 540.8C1244.78 549.556 1242.79 556.895 1238.9 562.915L1242.26 565.085C1246.64 558.305 1248.78 550.177 1248.78 540.8H1244.78ZM1238.91 562.899C1235.12 568.648 1228.19 573.38 1217.74 576.905L1219.02 580.695C1229.91 577.021 1237.78 571.885 1242.25 565.101L1238.91 562.899ZM1217.77 576.898C1207.39 580.27 1192.83 582 1173.98 582V586C1193 586 1208.05 584.263 1219 580.702L1217.77 576.898ZM1173.98 582H1083.98V586H1173.98V582ZM1085.98 584.082C1087.05 558.192 1087.58 533.964 1087.58 511.4H1083.58C1083.58 533.902 1083.05 558.074 1081.99 583.918L1085.98 584.082ZM1087.58 511.4C1087.58 488.836 1087.05 464.608 1085.98 438.718L1081.99 438.882C1083.05 464.726 1083.58 488.898 1083.58 511.4H1087.58ZM1083.98 440.8H1130.98V436.8H1083.98V440.8ZM1128.98 438.8V439H1132.98V438.8H1128.98ZM1130.98 441H1173.58V437H1130.98V441ZM1173.58 441C1190.04 441 1202.82 442.397 1212.02 445.118L1213.15 441.282C1203.42 438.403 1190.2 437 1173.58 437V441ZM1212.05 445.127C1221.44 447.735 1227.69 451.496 1231.18 456.193L1234.39 453.807C1230.15 448.104 1222.93 443.998 1213.12 441.273L1212.05 445.127ZM1231.2 456.219C1234.88 460.998 1236.78 467.142 1236.78 474.8H1240.78C1240.78 466.458 1238.69 459.401 1234.37 453.781L1231.2 456.219ZM1236.78 474.8C1236.78 482.411 1234.12 489.21 1228.69 495.266L1231.67 497.935C1237.72 491.19 1240.78 483.455 1240.78 474.8H1236.78ZM1228.69 495.267C1223.47 501.115 1214.24 506.047 1200.64 509.875L1201.73 513.725C1215.6 509.819 1225.7 504.619 1231.68 497.933L1228.69 495.267ZM1128.98 475.4V494H1132.98V475.4H1128.98ZM1130.98 496H1169.38V492H1130.98V496ZM1169.38 496C1177.65 496 1183.78 495.284 1187.42 493.618L1185.75 489.982C1182.99 491.249 1177.65 492 1169.38 492V496ZM1187.39 493.631C1189.36 492.762 1190.95 491.485 1192.03 489.76C1193.1 488.043 1193.58 486.022 1193.58 483.8H1189.58C1189.58 485.445 1189.23 486.69 1188.64 487.64C1188.05 488.581 1187.14 489.371 1185.78 489.969L1187.39 493.631ZM1193.58 483.8C1193.58 481.864 1193.03 480.103 1191.84 478.639C1190.67 477.201 1189.01 476.192 1187.04 475.51L1185.73 479.29C1187.23 479.808 1188.17 480.465 1188.73 481.161C1189.28 481.83 1189.58 482.67 1189.58 483.8H1193.58ZM1187.13 475.543C1183.41 474.055 1177.4 473.4 1169.38 473.4V477.4C1177.37 477.4 1182.69 478.078 1185.64 479.257L1187.13 475.543ZM1169.38 473.4H1130.98V477.4H1169.38V473.4ZM1169.38 549.4C1176.34 549.4 1181.73 549.134 1185.48 548.578L1184.89 544.622C1181.44 545.133 1176.29 545.4 1169.38 545.4V549.4ZM1185.54 548.569C1189.4 547.879 1192.52 546.725 1194.54 544.874L1191.83 541.926C1190.65 543.008 1188.44 543.987 1184.83 544.631L1185.54 548.569ZM1194.6 544.814C1196.64 542.773 1197.58 540.095 1197.58 537H1193.58C1193.58 539.238 1192.93 540.827 1191.77 541.986L1194.6 544.814ZM1197.58 537C1197.58 534.87 1196.98 532.939 1195.71 531.316C1194.46 529.718 1192.66 528.552 1190.49 527.73L1189.08 531.47C1190.77 532.114 1191.88 532.915 1192.56 533.784C1193.22 534.627 1193.58 535.664 1193.58 537H1197.58ZM1190.57 527.762C1186.42 525.983 1179.24 525.2 1169.38 525.2V529.2C1179.26 529.2 1185.68 530.017 1189 531.438L1190.57 527.762ZM1169.38 525.2H1130.98V529.2H1169.38V525.2ZM1128.98 527.2V547.4H1132.98V527.2H1128.98ZM1130.98 549.4H1169.38V545.4H1130.98V549.4Z" fill="url(#paint0_linear_456_483)"/>
<defs>
<linearGradient id="paint0_linear_456_483" x1="1435.84" y1="154.2" x2="45.3765" y2="412.065" gradientUnits="userSpaceOnUse">
<stop offset="0.188193" stop-color="#EDB9D7"/>
<stop offset="1" stop-color="#1737D9"/>
</linearGradient>
</defs>
</svg>
