<svg width="68" height="68" viewBox="0 0 68 68" fill="none" xmlns="http://www.w3.org/2000/svg">
<path d="M42.6416 14.1666C45.4091 14.7065 47.9524 16.06 49.9462 18.0537C51.9399 20.0475 53.2934 22.5908 53.8333 25.3583M42.6416 2.83325C48.3913 3.47199 53.7528 6.04675 57.846 10.1348C61.9392 14.2228 64.5207 19.5811 65.1666 25.3299M62.3333 47.9399V56.4399C62.3365 57.229 62.1749 58.0101 61.8588 58.7331C61.5426 59.4561 61.079 60.1051 60.4975 60.6385C59.9161 61.172 59.2296 61.5781 58.4821 61.8309C57.7346 62.0837 56.9425 62.1776 56.1566 62.1066C47.438 61.1592 39.0631 58.18 31.705 53.4083C24.8592 49.0581 19.0551 43.2541 14.705 36.4083C9.91658 29.0167 6.93666 20.6011 6.00664 11.8433C5.93584 11.0597 6.02895 10.2701 6.28006 9.52452C6.53116 8.77897 6.93476 8.09387 7.46514 7.51284C7.99553 6.93182 8.64109 6.4676 9.36071 6.14973C10.0803 5.83187 10.8583 5.66733 11.645 5.66659H20.145C21.52 5.65305 22.853 6.13997 23.8956 7.03659C24.9382 7.93321 25.6192 9.17835 25.8116 10.5399C26.1704 13.2601 26.8357 15.931 27.795 18.5016C28.1762 19.5157 28.2587 20.6178 28.0327 21.6774C27.8067 22.737 27.2818 23.7096 26.52 24.4799L22.9216 28.0783C26.955 35.1716 32.8283 41.0448 39.9216 45.0783L43.52 41.4799C44.2903 40.7181 45.2629 40.1932 46.3225 39.9672C47.382 39.7412 48.4842 39.8237 49.4983 40.2049C52.0689 41.1641 54.7398 41.8295 57.46 42.1883C58.8363 42.3824 60.0933 43.0757 60.9918 44.1362C61.8904 45.1966 62.3678 46.5504 62.3333 47.9399Z" stroke="url(#paint0_linear_459_216)" stroke-width="5" stroke-linecap="round" stroke-linejoin="round"/>
<defs>
<linearGradient id="paint0_linear_459_216" x1="73.6406" y1="22.034" x2="6.9739" y2="29.01" gradientUnits="userSpaceOnUse">
<stop stop-color="#EDB9D7"/>
<stop offset="1" stop-color="#768CFF"/>
</linearGradient>
</defs>
</svg>
